<?xml version="1.0" encoding="UTF-8" standalone="no"?>
<svg
   xmlns:dc="http://purl.org/dc/elements/1.1/"
   xmlns:cc="http://creativecommons.org/ns#"
   xmlns:rdf="http://www.w3.org/1999/02/22-rdf-syntax-ns#"
   xmlns:svg="http://www.w3.org/2000/svg"
   xmlns="http://www.w3.org/2000/svg"
   xmlns:sodipodi="http://sodipodi.sourceforge.net/DTD/sodipodi-0.dtd"
   xmlns:inkscape="http://www.inkscape.org/namespaces/inkscape"
   width="71mm"
   height="9mm"
   viewBox="0 0 71 9"
   version="1.1"
   id="svg8"
   inkscape:version="1.0.2 (e86c8708, 2021-01-15)"
   sodipodi:docname="foursquare.svg">
  <defs
     id="defs2" />
  <sodipodi:namedview
     id="base"
     pagecolor="#ffffff"
     bordercolor="#666666"
     borderopacity="1.0"
     inkscape:pageopacity="0.0"
     inkscape:pageshadow="2"
     inkscape:zoom="3.5325352"
     inkscape:cx="128.02263"
     inkscape:cy="73.544914"
     inkscape:document-units="mm"
     inkscape:current-layer="layer2"
     inkscape:document-rotation="0"
     showgrid="false"
     inkscape:window-width="1498"
     inkscape:window-height="1035"
     inkscape:window-x="214"
     inkscape:window-y="23"
     inkscape:window-maximized="0" />
  <metadata
     id="metadata5">
    <rdf:RDF>
      <cc:Work
         rdf:about="">
        <dc:format>image/svg+xml</dc:format>
        <dc:type
           rdf:resource="http://purl.org/dc/dcmitype/StillImage" />
        <dc:title></dc:title>
      </cc:Work>
    </rdf:RDF>
  </metadata>
  <g
     inkscape:label="Layer 1"
     inkscape:groupmode="layer"
     id="layer1" />
  <g
     inkscape:groupmode="layer"
     id="layer2"
     inkscape:label="Layer 2">
    <g
       aria-label="FOURSQUARE"
       id="text12"
       style="font-style:normal;font-weight:normal;font-size:10.2306px;line-height:1.25;font-family:sans-serif;fill:#000000;fill-opacity:1;stroke:none;stroke-width:0.264583"
       transform="translate(-48.511246,-130.05711)">
      <path
         d="m 49.420657,130.90036 h 3.227151 0.845952 q 0.114883,0 0.219321,0 0.114883,0 0.177546,0.0418 0.08356,0.0523 0.094,0.15666 0.02089,0.094 0.02089,0.22976 0,0.0523 0,0.10444 0.01044,0.0417 -0.01044,0.0835 -0.04177,0.1671 -0.187989,0.18798 -0.13577,0.0104 -0.344647,0.0104 H 52.37628 50.841033 q -0.167102,0 -0.355091,0 -0.187989,-0.0104 -0.281984,0.0627 -0.094,0.0627 -0.104439,0.21932 0,0.15665 0,0.31331 v 1.03394 q 0,0.0835 -0.01044,0.20888 0,0.12533 0.02089,0.20888 v 0.0836 q 0.02089,0.0627 0.03133,0.12532 0.02089,0.0523 0.0731,0.0836 0.094,0.0627 0.292428,0.0627 0.198433,-0.0104 0.344646,-0.0104 h 1.879894 q 0.094,0 0.198434,0 0.114882,-0.0104 0.21932,0 0.114883,0 0.198434,0.0209 0.094,0.0209 0.125326,0.0731 0.05222,0.0627 0.05222,0.15665 0,0.094 0,0.20888 0,0.0627 0,0.11487 0,0.0523 -0.02089,0.094 -0.04177,0.10445 -0.114883,0.11489 -0.04177,0.0209 -0.08355,0.0209 -0.03133,0 -0.08356,0.0104 -0.04177,0.0104 -0.094,0.0104 -0.04177,-0.0104 -0.08356,-0.0104 h -0.365535 -1.765011 q -0.167102,0 -0.396867,0 -0.21932,-0.0104 -0.313316,0.0627 -0.05222,0.0418 -0.08356,0.13577 -0.02089,0.0835 -0.03133,0.19843 0,0.11489 0,0.24021 0.01044,0.11489 0.01044,0.20888 v 1.79634 q 0,0.17755 0.01044,0.38642 0.01044,0.20888 -0.0731,0.31332 -0.03133,0.0418 -0.094,0.0523 -0.06266,0 -0.125326,0.0209 H 49.61907 q -0.146214,0 -0.27154,-0.0104 -0.125327,-0.0104 -0.177546,-0.10443 -0.04177,-0.0627 -0.04177,-0.1671 0,-0.11489 0,-0.22977 v -0.8355 -4.36553 -1.12794 q 0,-0.11489 -0.01044,-0.25065 0,-0.14622 0.05222,-0.22977 0.04177,-0.0627 0.156658,-0.10444 0.02089,-0.0104 0.04177,0 0.03133,0 0.05222,-0.0104 z"
         style="font-style:normal;font-variant:normal;font-weight:normal;font-stretch:normal;font-size:10.2306px;font-family:'Alte Haas Grotesk';-inkscape-font-specification:'Alte Haas Grotesk';fill:#000000;stroke-width:0.270098"
         id="path49" />
      <path
         d="m 61.83024,134.47215 q 0.01044,0.0523 0.01044,0.15666 0,0.094 -0.01044,0.14621 v 0.12533 q -0.02089,0.10443 -0.02089,0.21932 0,0.10443 -0.02089,0.19843 -0.02089,0.0836 -0.03133,0.15666 -0.01044,0.0731 -0.02089,0.15666 -0.05222,0.17754 -0.094,0.34465 -0.04177,0.1671 -0.104439,0.32376 -0.313315,0.7624 -0.825064,1.27414 -0.501305,0.51175 -1.315926,0.78329 -0.114882,0.0313 -0.229764,0.0523 -0.114883,0.0209 -0.229765,0.0522 -0.05222,0.0104 -0.094,0.0104 -0.04177,0 -0.08355,0.0104 l -0.344648,0.0313 q -0.03133,0.0104 -0.146214,0 -0.104439,0 -0.13577,-0.0104 -0.05222,-0.0104 -0.104438,-0.0104 -0.04177,0.0104 -0.08356,0 H 57.83024 q -0.0731,-0.0209 -0.146214,-0.0313 -0.06266,0 -0.13577,-0.0104 -0.104438,-0.0313 -0.208877,-0.0523 -0.094,-0.0104 -0.198433,-0.0418 -0.104438,-0.0418 -0.208877,-0.0835 -0.104438,-0.0418 -0.208877,-0.0835 -0.637075,-0.28199 -1.05483,-0.77285 -0.407311,-0.50131 -0.67885,-1.15927 -0.06266,-0.14621 -0.094,-0.30287 -0.03133,-0.15666 -0.08355,-0.32376 -0.02089,-0.0417 -0.02089,-0.0731 0.01044,-0.0313 -0.01044,-0.0835 -0.02089,-0.0731 -0.02089,-0.15666 0,-0.0835 -0.02089,-0.1671 -0.02089,-0.0418 -0.02089,-0.0835 0.01044,-0.0418 0,-0.0731 v -0.21931 q -0.02089,-0.0523 -0.02089,-0.14622 0,-0.094 0.02089,-0.14621 v -0.13578 l 0.03133,-0.37597 q 0.02089,-0.0627 0.02089,-0.12532 0,-0.0627 0.02089,-0.12533 0.04177,-0.1671 0.07311,-0.32376 0.03133,-0.16711 0.094,-0.31332 0.08355,-0.19843 0.156658,-0.38642 0.0731,-0.18799 0.18799,-0.35509 0.292428,-0.46998 0.689294,-0.81463 0.396866,-0.34464 0.939947,-0.56396 0.114882,-0.0523 0.240208,-0.0835 0.13577,-0.0313 0.271541,-0.0731 0.06266,-0.0209 0.125326,-0.0209 0.0731,0 0.13577,-0.0209 0.08356,-0.0104 0.156658,-0.0104 0.08356,-0.0104 0.167102,-0.0209 0.02089,-0.0104 0.05222,0 0.03133,0.0104 0.05222,0 0.699739,-0.0209 1.221931,0.14621 0.522193,0.15665 0.91906,0.43864 0.156657,0.10444 0.302871,0.21932 0.146214,0.11488 0.261096,0.2611 0.03133,0.0523 0.0731,0.0835 0.04177,0.0313 0.0731,0.0836 0.06266,0.0835 0.125327,0.17755 0.06266,0.0835 0.114882,0.1671 0.02089,0.0523 0.04177,0.094 0.02089,0.0313 0.05222,0.0835 0.04177,0.0627 0.0731,0.12532 0.08356,0.188 0.167101,0.39688 0.02089,0.0627 0.03133,0.12531 0.02089,0.0523 0.04177,0.11489 0.03133,0.10444 0.05222,0.21932 0.03133,0.10444 0.06266,0.21933 0.02089,0.0523 0.02089,0.10443 0,0.0523 0.01044,0.10444 0.02089,0.0731 0.02089,0.14622 0,0.0731 0.02089,0.15666 v 0.0627 q 0.01044,0.0523 0,0.10444 -0.01044,0.0523 0.01044,0.10443 z m -0.981721,0.3342 q 0.02089,-0.0523 0.02089,-0.17754 0,-0.13578 -0.02089,-0.18799 v -0.0835 q 0,-0.0523 -0.01044,-0.094 0,-0.0418 0,-0.094 -0.02089,-0.0522 -0.02089,-0.094 0.01044,-0.0523 -0.01044,-0.10444 -0.02089,-0.094 -0.04177,-0.18799 -0.01044,-0.094 -0.03133,-0.17754 -0.05222,-0.14622 -0.094,-0.27154 -0.03133,-0.13577 -0.08356,-0.2611 -0.177545,-0.42819 -0.490861,-0.77284 -0.302872,-0.34465 -0.720626,-0.53264 -0.229765,-0.10444 -0.54308,-0.1671 -0.146214,-0.0418 -0.334204,-0.0418 -0.177545,-0.0104 -0.355091,-0.0104 -0.0731,0.0104 -0.146214,0.0209 -0.06266,0 -0.146213,0.0104 -0.156658,0.0418 -0.302873,0.0835 -0.13577,0.0313 -0.271539,0.0835 -0.563969,0.24021 -0.887728,0.68929 -0.32376,0.44909 -0.522193,1.05484 -0.04177,0.11488 -0.06266,0.24021 -0.01044,0.11488 -0.04177,0.2402 -0.01044,0.0523 -0.01044,0.10444 0,0.0418 -0.01044,0.094 -0.02089,0.0418 -0.02089,0.094 0.01044,0.0418 0,0.0835 v 0.094 q -0.01044,0.0522 -0.01044,0.18799 0,0.13577 0.01044,0.18798 0,0.0418 0,0.0835 0.01044,0.0313 0.01044,0.0731 0.02089,0.0836 0.02089,0.18799 0.01044,0.094 0.03133,0.17755 0.01044,0.0418 0,0.0836 0,0.0313 0.02089,0.0731 0.03133,0.11488 0.05222,0.22976 0.02089,0.11488 0.0731,0.22977 0.05222,0.11487 0.08356,0.22976 0.04177,0.10444 0.104439,0.20888 0.05222,0.0836 0.094,0.1671 0.05222,0.0731 0.104438,0.15666 0.32376,0.45953 0.845953,0.72062 0.146214,0.0836 0.292428,0.12533 0.156658,0.0418 0.334203,0.094 0.0731,0.0209 0.135771,0.0209 0.06266,-0.0104 0.13577,0.0104 0.06266,0.0209 0.135769,0.0209 0.08355,-0.0104 0.167102,-0.0104 h 0.104439 q 0.05222,-0.0104 0.104438,-0.0104 0.05222,-0.0104 0.104439,-0.0104 0.146214,-0.0313 0.271541,-0.0523 0.135769,-0.0209 0.250652,-0.0731 0.532637,-0.21932 0.86684,-0.57441 0.344647,-0.35509 0.563968,-0.88774 0.05222,-0.13576 0.08355,-0.28197 0.04177,-0.14622 0.08356,-0.29243 0.02089,-0.0627 0.02089,-0.12533 0.01044,-0.0731 0.03133,-0.14621 l 0.03133,-0.34465 z"
         style="font-style:normal;font-variant:normal;font-weight:normal;font-stretch:normal;font-size:10.2306px;font-family:'Alte Haas Grotesk';-inkscape-font-specification:'Alte Haas Grotesk';fill:#000000;stroke-width:0.270098"
         id="path51" />
      <path
         d="m 63.310821,130.90036 q 0.146213,0 0.344647,0 0.208877,-0.0104 0.27154,0.0731 0.08355,0.094 0.0731,0.28199 0,0.18798 0,0.35509 v 1.56657 1.94256 q 0,0.36553 0.01044,0.72062 0.01044,0.34465 0.104439,0.6162 0.13577,0.4073 0.386422,0.66839 0.250654,0.26111 0.637076,0.42821 0.114882,0.0522 0.240209,0.0731 0.125326,0.0104 0.250652,0.0418 0.06266,0.0104 0.125326,0.0209 0.0731,0 0.13577,0.0104 h 0.104439 q 0.06266,0 0.125326,0.0104 0.0731,0 0.125326,-0.0209 0.05222,-0.0104 0.104438,0 0.06266,0 0.114883,-0.0104 0.125326,-0.0313 0.240209,-0.0523 0.114882,-0.0209 0.229765,-0.0731 0.396866,-0.15666 0.616187,-0.40731 0.229765,-0.25066 0.365535,-0.66841 0.08355,-0.2611 0.094,-0.58486 0.02089,-0.33421 0.02089,-0.67885 v -1.71279 -1.80679 q 0,-0.17755 -0.01044,-0.39686 0,-0.22977 0.08356,-0.32376 0.05222,-0.0731 0.18799,-0.0731 0.146213,0 0.281984,0 0.05222,0 0.094,0.0104 0.05222,0 0.104439,0 0.146213,0.0313 0.187989,0.10443 0.05222,0.0836 0.04177,0.24021 0,0.15666 0,0.28198 v 1.44126 2.17232 q 0,0.38642 -0.01044,0.76239 -0.01044,0.37599 -0.09399,0.67886 -0.146215,0.51175 -0.386423,0.87728 -0.229765,0.35509 -0.626631,0.60575 -0.156658,0.094 -0.334204,0.1671 -0.177545,0.0731 -0.375978,0.13577 -0.094,0.0313 -0.18799,0.0418 -0.09399,0.0209 -0.198433,0.0418 -0.104438,0.0209 -0.219321,0.0209 -0.104438,0 -0.208877,0.0209 h -0.125326 q -0.05222,0.0104 -0.167102,0.0104 -0.114882,0 -0.167101,-0.0104 h -0.125327 q -0.0731,-0.0209 -0.156658,-0.0209 -0.0731,0.0104 -0.146214,-0.0104 h -0.08356 q -0.08356,-0.0209 -0.167101,-0.0313 -0.0731,-0.0104 -0.156658,-0.0313 -0.177546,-0.0523 -0.355091,-0.094 -0.167101,-0.0523 -0.323759,-0.12532 -0.07311,-0.0313 -0.146215,-0.0731 -0.06266,-0.0418 -0.13577,-0.094 -0.313316,-0.19844 -0.522193,-0.46998 -0.208877,-0.27154 -0.35509,-0.63707 -0.06266,-0.15666 -0.094,-0.32376 -0.03133,-0.16711 -0.07311,-0.34465 -0.01044,-0.0835 -0.02089,-0.15666 0,-0.0835 -0.01044,-0.16709 v -0.10445 q -0.02089,-0.0836 -0.01044,-0.1671 0.01044,-0.094 0.01044,-0.17754 v -0.67885 -2.72585 -0.71018 q 0,-0.094 0,-0.18799 0,-0.094 0.04177,-0.15666 0.04177,-0.0731 0.156658,-0.10443 0.06266,0 0.08356,-0.0104 z"
         style="font-style:normal;font-variant:normal;font-weight:normal;font-stretch:normal;font-size:10.2306px;font-family:'Alte Haas Grotesk';-inkscape-font-specification:'Alte Haas Grotesk';fill:#000000;stroke-width:0.270098"
         id="path53" />
      <path
         d="m 76.456043,138.07528 q 0.05222,0.13577 -0.04177,0.20888 -0.05222,0.0313 -0.13577,0.0417 -0.0731,0 -0.156658,0 -0.167102,0 -0.334203,0 -0.167102,0 -0.261096,-0.0731 -0.08356,-0.0523 -0.114883,-0.15666 -0.02089,-0.11489 -0.04177,-0.22976 -0.01044,-0.0418 -0.01044,-0.0731 0,-0.0417 0,-0.0731 -0.02089,-0.0523 -0.01044,-0.094 0.01044,-0.0418 0,-0.0835 -0.01044,-0.0627 -0.01044,-0.12533 0,-0.0627 0,-0.12533 l -0.03133,-0.46997 q -0.02089,-0.0731 -0.02089,-0.14621 0,-0.0731 -0.02089,-0.15666 -0.05222,-0.18799 -0.08356,-0.37598 -0.02089,-0.18799 -0.094,-0.35509 -0.198433,-0.43865 -0.657962,-0.58486 -0.13577,-0.0523 -0.302872,-0.0523 -0.156658,-0.0104 -0.334203,-0.0104 h -1.92167 q -0.0731,0.0209 -0.13577,0.0418 -0.05222,0.0104 -0.094,0.0627 -0.0731,0.10443 -0.0731,0.34465 0.01044,0.22976 0.01044,0.4073 v 1.51437 q 0,0.1462 0.01044,0.36553 0.01044,0.20887 -0.04177,0.31332 -0.02089,0.0731 -0.08356,0.094 -0.04177,0.0209 -0.08356,0.0209 -0.03133,0 -0.08356,0.0209 -0.04177,0.0104 -0.09399,0.0104 -0.05222,-0.0104 -0.104438,-0.0104 -0.114883,0 -0.229765,0 -0.104438,-0.0104 -0.177545,-0.0627 -0.08356,-0.0523 -0.08356,-0.18799 0,-0.14621 0,-0.28199 v -6.34985 q 0,-0.11489 -0.01044,-0.24022 0,-0.12532 0.05222,-0.19843 0.04177,-0.0627 0.156657,-0.10443 0.02089,-0.0104 0.04177,0 0.02089,0 0.04177,-0.0104 h 3.028718 q 0.0731,0 0.156658,0 0.08356,-0.0104 0.146215,0 h 0.114881 q 0.06266,0.0104 0.125326,0.0209 0.06266,0 0.135771,0.0104 0.08356,0.0209 0.167102,0.0313 0.09399,0.0104 0.177545,0.0313 0.198433,0.0627 0.365535,0.13578 0.167102,0.0731 0.313316,0.17754 0.261096,0.17755 0.417754,0.43864 0.167102,0.25066 0.27154,0.5953 0.02089,0.0835 0.02089,0.17755 0.01044,0.0835 0.03133,0.1671 v 0.10443 q 0.01044,0.0523 0,0.12533 0,0.0627 -0.01044,0.11489 v 0.11487 q -0.02089,0.0836 -0.03133,0.15666 0,0.0731 -0.02089,0.14622 -0.05222,0.15666 -0.104438,0.30287 -0.04177,0.13578 -0.125326,0.26109 -0.03133,0.0523 -0.0731,0.094 -0.03133,0.0418 -0.06266,0.094 -0.01044,0.0104 -0.02089,0.0209 -0.01044,0 -0.02089,0.0104 -0.02089,0.0209 -0.05222,0.0523 -0.02089,0.0313 -0.04177,0.0523 -0.08356,0.0627 -0.156658,0.12533 -0.0731,0.0523 -0.156657,0.10444 -0.05222,0.0313 -0.094,0.0731 -0.04177,0.0313 -0.05222,0.094 -0.01044,0.0627 0.04177,0.10444 0.06266,0.0417 0.104439,0.0627 0.114882,0.0731 0.208877,0.15664 0.104438,0.0836 0.177545,0.19845 0.114883,0.1462 0.167102,0.3342 0.05222,0.17755 0.104439,0.38642 0.01044,0.0835 0.02089,0.1671 0.01044,0.0731 0.02089,0.15666 0.02089,0.0731 0.01044,0.14621 -0.01044,0.0731 0.01044,0.14621 v 0.094 q 0.02089,0.0731 0.01044,0.15666 -0.01044,0.0835 0.01044,0.1671 0.01044,0.0418 0,0.0835 0,0.0313 0.01044,0.0836 0.02089,0.10443 0.03133,0.21931 0.01044,0.10445 0.04177,0.19844 0.02089,0.0627 0.02089,0.12532 0.01044,0.0523 0.03133,0.11488 z m -1.263706,-4.3342 q 0.07311,-0.11489 0.104438,-0.2402 0.04177,-0.12533 0.0731,-0.27155 v -0.094 q 0.03133,-0.1462 0.01044,-0.31331 -0.02089,-0.17754 -0.06266,-0.29243 -0.167102,-0.52219 -0.657963,-0.72062 -0.208877,-0.0836 -0.490861,-0.094 -0.271541,-0.0104 -0.563969,-0.0104 h -1.723236 q -0.02089,0.0104 -0.05222,0.0104 -0.02089,0 -0.05222,0.0104 -0.125327,0.0313 -0.167103,0.13577 -0.04177,0.094 -0.04177,0.2611 0.01044,0.16711 0.01044,0.30287 v 1.20104 q 0,0.15666 -0.01044,0.33421 0,0.1671 0.0731,0.2611 0.05222,0.0731 0.156658,0.094 0.104439,0.0104 0.229765,0.0104 h 0.647519 q 0.40731,0 0.793733,0.0104 0.386423,0 0.710182,-0.0418 0.334203,-0.0522 0.595299,-0.17754 0.261097,-0.12533 0.417755,-0.37598 z"
         style="font-style:normal;font-variant:normal;font-weight:normal;font-stretch:normal;font-size:10.2306px;font-family:'Alte Haas Grotesk';-inkscape-font-specification:'Alte Haas Grotesk';fill:#000000;stroke-width:0.270098"
         id="path55" />
      <path
         d="m 80.148435,130.7437 q 0.595299,-0.0209 1.054829,0.094 0.45953,0.11488 0.814621,0.34464 0.06266,0.0418 0.114882,0.0731 0.06266,0.0313 0.114883,0.0835 0.02089,0.0209 0.04177,0.0418 0.02089,0.0104 0.04177,0.0313 0.02089,0.0209 0.05222,0.0522 0.03133,0.0209 0.05222,0.0523 0.04177,0.0523 0.08356,0.10444 0.04177,0.0522 0.08355,0.10443 0.04177,0.0523 0.06266,0.11489 0.03133,0.0523 0.06266,0.10444 0.09399,0.1462 0.146214,0.3342 0.05222,0.17755 0.104438,0.37598 0.02089,0.0835 0.01044,0.18799 0,0.094 -0.03133,0.14621 -0.05222,0.0731 -0.167102,0.0835 -0.114882,0.0104 -0.240209,0.0104 -0.05222,0 -0.09399,0 -0.04177,0 -0.08356,-0.0104 -0.05222,-0.0104 -0.09399,-0.0104 -0.03133,0 -0.0731,-0.0209 -0.02089,-0.0104 -0.04177,-0.0209 -0.02089,-0.0209 -0.04177,-0.0418 -0.06266,-0.094 -0.094,-0.22977 -0.02089,-0.13577 -0.0731,-0.24021 -0.177546,-0.41776 -0.501306,-0.62663 -0.240208,-0.1671 -0.574412,-0.25065 -0.06266,-0.0209 -0.125326,-0.0209 -0.06266,-0.0104 -0.125326,-0.0313 h -0.08356 q -0.08355,-0.0209 -0.167102,-0.0209 -0.08355,0 -0.167101,0 -0.54308,0 -0.908615,0.1671 -0.208877,0.0836 -0.375979,0.22977 -0.167102,0.13576 -0.250652,0.34465 -0.04177,0.0835 -0.06266,0.17754 -0.01044,0.0835 -0.03133,0.18799 -0.02089,0.0835 -0.02089,0.18799 0.01044,0.10443 0.03133,0.17754 0.0731,0.24021 0.177545,0.36554 0.114883,0.12533 0.313316,0.2402 0.229764,0.14622 0.511748,0.21933 0.281985,0.0731 0.584856,0.15666 0.094,0.0209 0.18799,0.0313 0.094,0.0104 0.18799,0.0418 0.146213,0.0418 0.302871,0.0731 0.167102,0.0209 0.313316,0.0731 0.04177,0.0104 0.0731,0.0209 0.03133,0 0.0731,0.0104 0.094,0.0209 0.18799,0.0523 0.094,0.0209 0.187989,0.0523 0.208877,0.0731 0.407311,0.15665 0.198433,0.0836 0.375978,0.19844 0.229765,0.14621 0.407311,0.34465 0.187989,0.18799 0.302871,0.44908 0.04177,0.094 0.06266,0.18799 0.02089,0.094 0.04177,0.19843 0.02089,0.0523 0.02089,0.12533 0,0.0627 0.02089,0.12533 v 0.11487 0.094 q -0.01044,0.0418 -0.01044,0.0836 0,0.0418 0,0.0835 -0.02089,0.0835 -0.03133,0.17754 0,0.0835 -0.03133,0.1671 -0.05222,0.15666 -0.114882,0.30288 -0.06266,0.14621 -0.156657,0.27153 -0.177547,0.27155 -0.449086,0.45954 -0.271541,0.18798 -0.584857,0.3342 -0.104438,0.0418 -0.208877,0.0731 -0.094,0.0313 -0.208877,0.0627 -0.114882,0.0418 -0.240209,0.0523 -0.125326,0.0209 -0.250652,0.0523 -0.05222,0.0104 -0.114883,0.0104 -0.05222,0 -0.104438,0.0104 -0.06266,0 -0.125326,0 -0.06266,0.0104 -0.125326,0.0104 -0.05222,0.0104 -0.156658,0.0104 -0.094,0 -0.146215,-0.0104 H 80.15887 q -0.104439,-0.0209 -0.208877,-0.0209 -0.104439,0 -0.198434,-0.0209 -0.04177,-0.0104 -0.08355,-0.0209 -0.04177,0 -0.094,-0.0104 -0.114881,-0.0209 -0.21932,-0.0418 -0.094,-0.0209 -0.198434,-0.0627 -0.511748,-0.1671 -0.86684,-0.4282 -0.344646,-0.2611 -0.595299,-0.67885 -0.08356,-0.13577 -0.146214,-0.28198 -0.05222,-0.14621 -0.104438,-0.31331 -0.02089,-0.0627 -0.03133,-0.12533 0,-0.0627 -0.02089,-0.11489 -0.02089,-0.094 -0.02089,-0.20887 0,-0.12533 0.05222,-0.17755 0.05222,-0.0731 0.167101,-0.0835 0.125326,-0.0104 0.240209,-0.0104 0.04177,0 0.08356,0 0.05222,0 0.08356,0.0104 0.05222,0.0104 0.08355,0.0104 0.03133,-0.0104 0.0731,0.0104 0.0731,0.0418 0.09399,0.0835 0.03133,0.0523 0.03133,0.11488 0.01044,0.0523 0.03133,0.11488 0.02089,0.0731 0.03133,0.14621 0.02089,0.0731 0.05222,0.14622 0.177547,0.44909 0.532637,0.71018 0.177546,0.13577 0.386423,0.21932 0.208877,0.0836 0.449086,0.15666 0.08356,0.0209 0.167102,0.0313 0.08355,0.0104 0.167101,0.0209 0.02089,0 0.05222,0.0104 0.03133,0 0.06266,0 0.04177,0.0104 0.09399,0 0.06266,-0.0104 0.114883,0.0104 0.04177,0.0104 0.114881,0.0104 0.08356,0 0.135771,-0.0209 h 0.0731 q 0.05222,-0.0104 0.104439,-0.0104 0.05222,0 0.104438,-0.0104 0.03133,-0.0104 0.05222,0 0.03133,0 0.07311,-0.0209 0.08355,-0.0209 0.177545,-0.0313 0.09399,-0.0209 0.177545,-0.0523 0.271541,-0.11489 0.480418,-0.2611 0.21932,-0.15665 0.334203,-0.41775 0.03133,-0.0835 0.05222,-0.16711 0.02089,-0.0835 0.04177,-0.1671 0.02089,-0.0835 0.02089,-0.19843 0,-0.11489 -0.02089,-0.18799 -0.02089,-0.0522 -0.02089,-0.0836 0,-0.0418 -0.02089,-0.0835 -0.06266,-0.17755 -0.167102,-0.29243 -0.104438,-0.12532 -0.250652,-0.22976 -0.219321,-0.15666 -0.490861,-0.25065 -0.271541,-0.094 -0.574412,-0.15666 -0.292428,-0.0731 -0.605744,-0.13577 -0.313315,-0.0627 -0.605743,-0.14622 -0.167102,-0.0523 -0.334204,-0.0835 -0.167102,-0.0418 -0.313315,-0.10445 -0.02089,-0.0104 -0.03133,-0.0104 -0.01044,0 -0.03133,-0.0104 -0.104438,-0.0418 -0.208877,-0.0836 -0.104438,-0.0418 -0.198433,-0.10443 -0.240208,-0.14622 -0.438641,-0.31332 -0.198434,-0.17754 -0.313316,-0.44909 -0.05222,-0.094 -0.07311,-0.19843 -0.02089,-0.11488 -0.05222,-0.22976 0,-0.0418 -0.01044,-0.0731 0,-0.0313 0,-0.0627 -0.03133,-0.12533 -0.01044,-0.31332 0.02089,-0.19843 0.05222,-0.30287 0.03133,-0.11488 0.05222,-0.21933 0.03133,-0.10443 0.0731,-0.19843 0.146214,-0.31331 0.375979,-0.52219 0.229764,-0.21932 0.511748,-0.39686 0.02089,-0.0209 0.05222,-0.0209 0.03133,-0.0104 0.05222,-0.0313 0.229765,-0.11489 0.532637,-0.19844 0.08356,-0.0209 0.156658,-0.0313 0.0731,-0.0209 0.156657,-0.0418 0.08356,-0.0209 0.177546,-0.0209 0.104438,0 0.187989,-0.0209 0.03133,-0.0104 0.09399,0 0.06266,0.0104 0.08356,-0.0104 z"
         style="font-style:normal;font-variant:normal;font-weight:normal;font-stretch:normal;font-size:10.2306px;font-family:'Alte Haas Grotesk';-inkscape-font-specification:'Alte Haas Grotesk';fill:#000000;stroke-width:0.270098"
         id="path57" />
      <path
         d="m 91.244378,134.45126 q 0.01044,0.0523 0.01044,0.15666 0,0.094 -0.01044,0.14622 v 0.11487 q -0.02089,0.0627 -0.02089,0.13577 0.01044,0.0627 -0.01044,0.11489 0,0.094 -0.01044,0.13577 -0.02089,0.0835 -0.03133,0.17755 0,0.0835 -0.02089,0.1671 -0.02089,0.0835 -0.04177,0.1671 -0.02089,0.0731 -0.04177,0.15666 -0.08356,0.24021 -0.167102,0.46997 -0.08355,0.21932 -0.208877,0.41776 -0.05222,0.094 -0.114882,0.19843 -0.06266,0.094 -0.13577,0.18799 -0.05222,0.0627 -0.104439,0.12533 -0.05222,0.0523 -0.08356,0.13576 -0.05222,0.14621 0.05222,0.24021 0.104439,0.094 0.177546,0.14622 0.05222,0.0523 0.104438,0.10443 0.06266,0.0418 0.125327,0.0836 0.05222,0.0523 0.104439,0.094 0.06266,0.0418 0.114881,0.094 0.02089,0.0313 0.05222,0.0835 0.03133,0.0418 0.01044,0.11489 -0.02089,0.0835 -0.0731,0.13577 -0.04177,0.0523 -0.094,0.11488 -0.03133,0.0523 -0.0731,0.094 -0.04177,0.0523 -0.09399,0.0731 -0.06266,0.0209 -0.125327,0.0104 -0.05222,-0.0104 -0.104439,-0.0418 -0.04177,-0.0313 -0.08355,-0.0731 -0.04177,-0.0313 -0.0731,-0.0523 -0.114882,-0.0835 -0.229765,-0.17755 -0.114882,-0.094 -0.229764,-0.17754 -0.08356,-0.0627 -0.156658,-0.11488 -0.06266,-0.0627 -0.167102,-0.094 -0.08355,-0.0209 -0.146214,0.0104 -0.06266,0.0313 -0.114883,0.0522 -0.114881,0.0523 -0.21932,0.0836 -0.104439,0.0313 -0.219321,0.0731 -0.146214,0.0523 -0.292428,0.0627 -0.146214,0.0209 -0.302872,0.0627 -0.05222,0 -0.114883,0 -0.05222,0.0104 -0.114881,0.0104 -0.02089,0.0104 -0.05222,0 -0.02089,0 -0.04177,0 -0.05222,0.0209 -0.177545,0.0209 -0.125326,0 -0.177545,-0.0209 h -0.104461 q -0.104439,-0.0209 -0.208877,-0.0209 -0.094,0 -0.18799,-0.0209 -0.09399,-0.0209 -0.187989,-0.0418 -0.09399,-0.0104 -0.177546,-0.0418 -0.146213,-0.0522 -0.292428,-0.094 -0.13577,-0.0523 -0.27154,-0.10444 -0.146214,-0.0731 -0.302872,-0.17754 -0.86684,-0.55353 -1.315925,-1.56658 -0.05222,-0.11488 -0.08356,-0.21932 -0.03133,-0.11489 -0.0731,-0.22976 -0.02089,-0.0418 -0.02089,-0.0731 0,-0.0418 -0.01044,-0.0835 -0.03133,-0.094 -0.05222,-0.19843 -0.02089,-0.10444 -0.04177,-0.20889 -0.02089,-0.0523 -0.02089,-0.10443 0.01044,-0.0627 -0.01044,-0.11488 -0.02089,-0.0523 -0.01044,-0.10444 0.01044,-0.0523 -0.01044,-0.10444 v -0.0835 q -0.02089,-0.0627 -0.02089,-0.20889 0,-0.15666 0.02089,-0.21932 v -0.13577 q 0,-0.0731 0,-0.14622 0.01044,-0.0731 0.02089,-0.1462 0.02089,-0.0731 0.02089,-0.13577 0,-0.0731 0.02089,-0.14622 0.04177,-0.15666 0.06266,-0.30287 0.03133,-0.15666 0.08355,-0.30288 0.532637,-1.59791 2.015664,-2.20364 0.177545,-0.0835 0.365535,-0.11489 0.18799,-0.0313 0.396867,-0.0835 l 0.313315,-0.0313 q 0.03133,0 0.06266,0.0104 0.03133,0.0104 0.05222,-0.0104 0.668406,-0.0104 1.169711,0.13578 0.501306,0.14621 0.898172,0.39687 0.08355,0.0523 0.156658,0.11488 0.0731,0.0523 0.156658,0.10444 0.02089,0.0209 0.04177,0.0522 0.03133,0.0313 0.06266,0.0523 0.06266,0.0523 0.114882,0.11489 0.03133,0.0209 0.0731,0.0627 0.04177,0.0418 0.0731,0.0836 0.04177,0.0418 0.0731,0.0835 0.114882,0.15666 0.229765,0.32376 0.125326,0.1671 0.208877,0.35509 0.0731,0.14622 0.125326,0.30287 0.06266,0.15666 0.114883,0.33421 0.04177,0.12533 0.06266,0.26109 0.03133,0.12533 0.0731,0.2611 l 0.03133,0.28199 q 0.01044,0.0731 0.01044,0.14621 0.01044,0.0731 0.02089,0.15665 z m -0.992166,0.55352 q 0.02089,-0.0835 0.02089,-0.17754 0,-0.10443 0,-0.20888 0,-0.0522 0,-0.10444 0,-0.0523 -0.01044,-0.094 v -0.0836 q 0,-0.0522 0,-0.094 0,-0.0523 -0.01044,-0.10444 -0.02089,-0.0523 -0.02089,-0.094 0.01044,-0.0418 -0.01044,-0.094 -0.02089,-0.11488 -0.04177,-0.22976 -0.02089,-0.11489 -0.05222,-0.21932 -0.02089,-0.0523 -0.03133,-0.0836 0,-0.0418 -0.02089,-0.0835 -0.03133,-0.10444 -0.0731,-0.19844 -0.03133,-0.10443 -0.0731,-0.19843 -0.02089,-0.0523 -0.06266,-0.10444 -0.03133,-0.0523 -0.06266,-0.10444 -0.04177,-0.0627 -0.0731,-0.12533 -0.03133,-0.0627 -0.0731,-0.12532 -0.156658,-0.20888 -0.396867,-0.40731 -0.240208,-0.20888 -0.49086,-0.32377 -0.135771,-0.0627 -0.281984,-0.094 -0.146215,-0.0418 -0.302873,-0.0836 -0.135769,-0.0418 -0.313315,-0.0418 -0.167101,0 -0.344648,0 -0.02089,0.0104 -0.04177,0.0104 -0.01044,-0.0104 -0.03133,-0.0104 -0.06266,0.0104 -0.125326,0.0209 -0.05222,0 -0.114883,0.0104 -0.146214,0.0418 -0.281984,0.0731 -0.125326,0.0209 -0.250652,0.0731 -0.553525,0.24022 -0.887728,0.67885 -0.32376,0.42821 -0.522193,1.0235 -0.04177,0.11489 -0.06266,0.24021 -0.02089,0.11488 -0.05222,0.24021 -0.01044,0.0523 -0.02089,0.10443 0,0.0523 -0.01044,0.10445 -0.01044,0.0523 -0.01044,0.11488 0.01044,0.0523 -0.01044,0.10443 v 0.094 q -0.01044,0.0523 -0.01044,0.13578 0.01044,0.0731 0.01044,0.13576 0,0.15666 0.01044,0.31332 0.01044,0.14621 0.04177,0.28198 0.02089,0.0627 0.02089,0.12533 0,0.0627 0.02089,0.11488 0.04177,0.13577 0.0731,0.27154 0.03133,0.12532 0.08356,0.25065 0.114881,0.28199 0.261096,0.52219 0.146213,0.22977 0.355091,0.43865 0.04177,0.0418 0.08356,0.0835 0.04177,0.0418 0.09399,0.0836 0.05222,0.0523 0.114883,0.094 0.06266,0.0313 0.13577,0.0836 0.03133,0.0209 0.06266,0.0313 0.03133,0.0104 0.06266,0.0313 0.146213,0.0836 0.302871,0.13577 0.167102,0.0418 0.344648,0.0835 0.06266,0.0209 0.125326,0.0209 0.06266,-0.0104 0.13577,0.0104 0.05222,0.0209 0.146214,0.0313 0.094,0 0.146214,-0.0209 h 0.125326 q 0.04177,-0.0104 0.0731,0 0.04177,0 0.08356,-0.0104 0.094,-0.0209 0.18799,-0.0313 0.104438,-0.0209 0.187989,-0.0523 0.05222,-0.0313 0.09399,-0.0523 0.05222,-0.0313 0.0731,-0.10444 0.01044,-0.0523 -0.04177,-0.11489 -0.05222,-0.0627 -0.08356,-0.0835 -0.05222,-0.0418 -0.114882,-0.0836 -0.05222,-0.0523 -0.104438,-0.10443 -0.04177,-0.0313 -0.08356,-0.0627 -0.04177,-0.0313 -0.0731,-0.0836 -0.02089,-0.0313 -0.03133,-0.0835 -0.01044,-0.0523 0.01044,-0.10445 0.02089,-0.0627 0.06266,-0.094 0.04177,-0.0418 0.0731,-0.094 0.0731,-0.11489 0.156658,-0.16711 0.114883,-0.0627 0.198434,-0.0104 0.08355,0.0418 0.156658,0.094 0.135769,0.094 0.250652,0.19844 0.125326,0.094 0.261096,0.18799 0.04177,0.0313 0.104439,0.0731 0.0731,0.0313 0.156658,0 0.125326,-0.0417 0.229764,-0.20887 0.114883,-0.1671 0.177546,-0.28199 0.03133,-0.0523 0.04177,-0.0835 0.02089,-0.0418 0.04177,-0.094 0.125326,-0.29243 0.219321,-0.60574 0.02089,-0.0523 0.02089,-0.10445 0,-0.0627 0.02089,-0.12532 0.02089,-0.0627 0.02089,-0.13577 0,-0.0731 0.02089,-0.13577 0,-0.0209 0,-0.0417 0.01044,-0.0313 0.01044,-0.0627 z"
         style="font-style:normal;font-variant:normal;font-weight:normal;font-stretch:normal;font-size:10.2306px;font-family:'Alte Haas Grotesk';-inkscape-font-specification:'Alte Haas Grotesk';fill:#000000;stroke-width:0.270098"
         id="path59" />
      <path
         d="m 92.724957,130.90036 q 0.146214,0 0.344648,0 0.208877,-0.0104 0.271539,0.0731 0.08356,0.094 0.0731,0.28199 0,0.18798 0,0.35509 v 1.56657 1.94256 q 0,0.36553 0.01044,0.72062 0.01044,0.34465 0.104439,0.6162 0.13577,0.4073 0.386422,0.66839 0.250653,0.26111 0.637076,0.42821 0.114882,0.0522 0.240208,0.0731 0.125326,0.0104 0.250653,0.0418 0.06266,0.0104 0.125326,0.0209 0.0731,0 0.13577,0.0104 h 0.104438 q 0.06266,0 0.125326,0.0104 0.0731,0 0.125328,-0.0209 0.05222,-0.0104 0.104438,0 0.06266,0 0.114882,-0.0104 0.125326,-0.0313 0.240209,-0.0523 0.114883,-0.0209 0.229764,-0.0731 0.396867,-0.15666 0.616188,-0.40731 0.229765,-0.25066 0.365535,-0.66841 0.08355,-0.2611 0.09399,-0.58486 0.02089,-0.33421 0.02089,-0.67885 v -1.71279 -1.80679 q 0,-0.17755 -0.01044,-0.39686 0,-0.22977 0.08355,-0.32376 0.05222,-0.0731 0.187989,-0.0731 0.146215,0 0.281984,0 0.05222,0 0.094,0.0104 0.05222,0 0.104439,0 0.146213,0.0313 0.18799,0.10443 0.05222,0.0836 0.04177,0.24021 0,0.15666 0,0.28198 v 1.44126 2.17232 q 0,0.38642 -0.01044,0.76239 -0.01044,0.37599 -0.094,0.67886 -0.146214,0.51175 -0.386423,0.87728 -0.229764,0.35509 -0.626631,0.60575 -0.156658,0.094 -0.334203,0.1671 -0.177546,0.0731 -0.375979,0.13577 -0.094,0.0313 -0.18799,0.0418 -0.094,0.0209 -0.198433,0.0418 -0.104438,0.0209 -0.219321,0.0209 -0.104438,0 -0.208877,0.0209 h -0.125326 q -0.05222,0.0104 -0.167102,0.0104 -0.114882,0 -0.167101,-0.0104 H 95.18969 q -0.0731,-0.0209 -0.156658,-0.0209 -0.0731,0.0104 -0.146215,-0.0104 h -0.08356 q -0.08355,-0.0209 -0.167101,-0.0313 -0.0731,-0.0104 -0.156658,-0.0313 -0.177545,-0.0523 -0.355091,-0.094 -0.167101,-0.0523 -0.323759,-0.12532 -0.0731,-0.0313 -0.146215,-0.0731 -0.06266,-0.0418 -0.13577,-0.094 -0.313316,-0.19844 -0.522193,-0.46998 -0.208877,-0.27154 -0.35509,-0.63707 -0.06266,-0.15666 -0.09399,-0.32376 -0.03133,-0.16711 -0.07311,-0.34465 -0.01044,-0.0835 -0.02089,-0.15666 0,-0.0835 -0.01044,-0.16709 v -0.10445 q -0.02089,-0.0836 -0.01044,-0.1671 0.01044,-0.094 0.01044,-0.17754 v -0.67885 -2.72585 -0.71018 q 0,-0.094 0,-0.18799 0,-0.094 0.04177,-0.15666 0.04177,-0.0731 0.156658,-0.10443 0.06266,0 0.08356,-0.0104 z"
         style="font-style:normal;font-variant:normal;font-weight:normal;font-stretch:normal;font-size:10.2306px;font-family:'Alte Haas Grotesk';-inkscape-font-specification:'Alte Haas Grotesk';fill:#000000;stroke-width:0.270098"
         id="path61" />
      <path
         d="m 105.83884,137.79329 q 0.0209,0.0523 0.0523,0.12533 0.0313,0.0731 0.0418,0.15666 0.0209,0.0731 0,0.14622 -0.0104,0.0627 -0.0835,0.094 -0.0523,0.0209 -0.12533,0.0209 -0.0731,0 -0.14622,0 -0.14621,0 -0.31331,0 -0.15666,0 -0.25065,-0.0523 -0.10444,-0.0627 -0.15666,-0.21932 -0.0418,-0.15666 -0.094,-0.28199 -0.11488,-0.27153 -0.20888,-0.56397 -0.094,-0.29243 -0.20887,-0.5744 -0.0313,-0.094 -0.0627,-0.17755 -0.0209,-0.0836 -0.0627,-0.15666 -0.0313,-0.0731 -0.094,-0.12533 -0.0627,-0.0523 -0.1671,-0.0835 -0.0523,-0.0209 -0.12533,-0.0104 -0.0627,0 -0.13577,0 h -1.97389 q -0.094,0 -0.20887,0 -0.11489,-0.0104 -0.21933,0 -0.10443,0.0104 -0.19843,0.0313 -0.0836,0.0209 -0.12533,0.0835 -0.0836,0.10444 -0.12532,0.24021 -0.0313,0.12532 -0.0836,0.2611 -0.10444,0.2402 -0.19843,0.5013 -0.0836,0.26109 -0.18799,0.50131 -0.0209,0.0627 -0.0522,0.14621 -0.0209,0.0731 -0.0522,0.15666 -0.0313,0.0835 -0.0731,0.15665 -0.0313,0.0627 -0.0731,0.094 -0.0836,0.0627 -0.229766,0.0731 -0.135771,0 -0.292429,0 -0.08356,0 -0.167102,0 -0.0731,-0.0104 -0.125326,-0.0523 -0.05222,-0.0313 -0.06266,-0.094 0,-0.0627 0.01044,-0.12533 0.02089,-0.0731 0.04177,-0.13578 0.03133,-0.0731 0.05222,-0.10444 0.146214,-0.33419 0.261097,-0.65795 0.114881,-0.33421 0.250652,-0.66841 0.094,-0.22977 0.177544,-0.44909 0.0836,-0.22976 0.17755,-0.45952 0.31331,-0.75197 0.5953,-1.51437 0.28198,-0.77285 0.5953,-1.53524 0.11489,-0.27155 0.20887,-0.55353 0.10445,-0.28198 0.21932,-0.55352 0.0523,-0.11489 0.094,-0.25066 0.0522,-0.14621 0.14622,-0.20887 0.0417,-0.0418 0.13577,-0.0627 0.0209,-0.0104 0.0418,0 0.0313,0 0.0523,-0.0104 0.18799,0 0.43865,0 0.25064,-0.0104 0.36553,0.0731 0.0835,0.0627 0.12532,0.20887 0.0523,0.13577 0.10444,0.25066 0.10445,0.24021 0.18799,0.48041 0.0836,0.24022 0.18799,0.48042 0.0835,0.20888 0.15666,0.4282 0.0836,0.21932 0.17754,0.4282 0.31332,0.7624 0.59531,1.54569 0.29242,0.77284 0.61618,1.53525 0.0417,0.094 0.0627,0.17754 0.0313,0.0835 0.0627,0.17755 0.11489,0.27153 0.21932,0.55352 0.11489,0.28199 0.22976,0.55352 z m -2.23497,-2.53785 q 0.094,-0.0313 0.11487,-0.10444 0.0313,-0.0731 0.0104,-0.15666 -0.0104,-0.094 -0.0522,-0.17754 -0.0313,-0.094 -0.0627,-0.15666 -0.0209,-0.0418 -0.0209,-0.0731 0,-0.0313 -0.0209,-0.0731 -0.0313,-0.0835 -0.0627,-0.1671 -0.0209,-0.094 -0.0627,-0.18799 -0.15666,-0.37598 -0.28199,-0.7624 -0.11489,-0.39686 -0.27154,-0.77284 -0.0523,-0.11488 -0.094,-0.22977 -0.0313,-0.11487 -0.0836,-0.21932 -0.0209,-0.0523 -0.0523,-0.094 -0.0209,-0.0522 -0.10443,-0.0522 -0.0209,0.0209 -0.0418,0.0313 -0.0209,0.0104 -0.0418,0.0313 -0.0418,0.0523 -0.0627,0.11488 -0.0209,0.0523 -0.0418,0.11489 -0.0523,0.11487 -0.0835,0.22976 -0.0313,0.11489 -0.0835,0.22976 -0.17755,0.40732 -0.31332,0.82507 -0.12533,0.41776 -0.29243,0.81462 -0.0209,0.0523 -0.0418,0.10444 -0.0104,0.0523 -0.0313,0.10444 -0.0313,0.0836 -0.0627,0.1671 -0.0313,0.0836 -0.0523,0.1671 -0.0209,0.0523 -0.0209,0.11489 0.0104,0.0627 0.0313,0.10443 0.0522,0.0836 0.21932,0.094 0.1671,0 0.31332,0 h 1.1175 q 0.11487,0 0.28198,0.0104 0.1671,0 0.25065,-0.0313 z"
         style="font-style:normal;font-variant:normal;font-weight:normal;font-stretch:normal;font-size:10.2306px;font-family:'Alte Haas Grotesk';-inkscape-font-specification:'Alte Haas Grotesk';fill:#000000;stroke-width:0.270098"
         id="path63" />
      <path
         d="m 112.64237,138.07528 q 0.0523,0.13577 -0.0418,0.20888 -0.0523,0.0313 -0.13577,0.0417 -0.0731,0 -0.15666,0 -0.1671,0 -0.3342,0 -0.1671,0 -0.26109,-0.0731 -0.0836,-0.0523 -0.11489,-0.15666 -0.0209,-0.11489 -0.0417,-0.22976 -0.0104,-0.0418 -0.0104,-0.0731 0,-0.0417 0,-0.0731 -0.0209,-0.0523 -0.0104,-0.094 0.0104,-0.0418 0,-0.0835 -0.0104,-0.0627 -0.0104,-0.12533 0,-0.0627 0,-0.12533 l -0.0313,-0.46997 q -0.0209,-0.0731 -0.0209,-0.14621 0,-0.0731 -0.0209,-0.15666 -0.0523,-0.18799 -0.0835,-0.37598 -0.0209,-0.18799 -0.094,-0.35509 -0.19843,-0.43865 -0.65796,-0.58486 -0.13577,-0.0523 -0.30287,-0.0523 -0.15666,-0.0104 -0.3342,-0.0104 h -1.92167 q -0.0731,0.0209 -0.13577,0.0418 -0.0522,0.0104 -0.094,0.0627 -0.0731,0.10443 -0.0731,0.34465 0.0104,0.22976 0.0104,0.4073 v 1.51437 q 0,0.1462 0.0104,0.36553 0.0104,0.20887 -0.0418,0.31332 -0.0209,0.0731 -0.0835,0.094 -0.0418,0.0209 -0.0835,0.0209 -0.0313,0 -0.0836,0.0209 -0.0417,0.0104 -0.094,0.0104 -0.0523,-0.0104 -0.10444,-0.0104 -0.11488,0 -0.22976,0 -0.10445,-0.0104 -0.17755,-0.0627 -0.0835,-0.0523 -0.0835,-0.18799 0,-0.14621 0,-0.28199 v -6.34985 q 0,-0.11489 -0.0104,-0.24022 0,-0.12532 0.0523,-0.19843 0.0417,-0.0627 0.15665,-0.10443 0.0209,-0.0104 0.0417,0 0.0209,0 0.0418,-0.0104 h 3.02872 q 0.0731,0 0.15666,0 0.0836,-0.0104 0.14621,0 h 0.11489 q 0.0627,0.0104 0.12533,0.0209 0.0627,0 0.13576,0.0104 0.0836,0.0209 0.1671,0.0313 0.094,0.0104 0.17755,0.0313 0.19843,0.0627 0.36553,0.13578 0.1671,0.0731 0.31332,0.17754 0.2611,0.17755 0.41776,0.43864 0.1671,0.25066 0.27153,0.5953 0.0209,0.0835 0.0209,0.17755 0.0104,0.0835 0.0313,0.1671 v 0.10443 q 0.0104,0.0523 0,0.12533 0,0.0627 -0.0104,0.11489 v 0.11487 q -0.0209,0.0836 -0.0313,0.15666 0,0.0731 -0.0209,0.14622 -0.0522,0.15666 -0.10444,0.30287 -0.0418,0.13578 -0.12532,0.26109 -0.0313,0.0523 -0.0731,0.094 -0.0313,0.0418 -0.0627,0.094 -0.0104,0.0104 -0.0209,0.0209 -0.0104,0 -0.0209,0.0104 -0.0209,0.0209 -0.0523,0.0523 -0.0209,0.0313 -0.0417,0.0523 -0.0835,0.0627 -0.15666,0.12533 -0.0731,0.0523 -0.15666,0.10444 -0.0522,0.0313 -0.094,0.0731 -0.0417,0.0313 -0.0523,0.094 -0.0104,0.0627 0.0418,0.10444 0.0627,0.0417 0.10443,0.0627 0.11489,0.0731 0.20889,0.15664 0.10443,0.0836 0.17754,0.19845 0.11488,0.1462 0.1671,0.3342 0.0522,0.17755 0.10444,0.38642 0.0104,0.0835 0.0209,0.1671 0.0104,0.0731 0.0209,0.15666 0.0209,0.0731 0.0104,0.14621 -0.0104,0.0731 0.0104,0.14621 v 0.094 q 0.0209,0.0731 0.0104,0.15666 -0.0104,0.0835 0.0104,0.1671 0.0104,0.0418 0,0.0835 0,0.0313 0.0104,0.0836 0.0209,0.10443 0.0313,0.21931 0.0104,0.10445 0.0418,0.19844 0.0209,0.0627 0.0209,0.12532 0.0104,0.0523 0.0313,0.11488 z m -1.26371,-4.3342 q 0.0731,-0.11489 0.10443,-0.2402 0.0418,-0.12533 0.0731,-0.27155 v -0.094 q 0.0313,-0.1462 0.0104,-0.31331 -0.0209,-0.17754 -0.0627,-0.29243 -0.1671,-0.52219 -0.65795,-0.72062 -0.20889,-0.0836 -0.49087,-0.094 -0.27154,-0.0104 -0.56396,-0.0104 h -1.72324 q -0.0209,0.0104 -0.0523,0.0104 -0.0209,0 -0.0523,0.0104 -0.12532,0.0313 -0.1671,0.13577 -0.0418,0.094 -0.0418,0.2611 0.0104,0.16711 0.0104,0.30287 v 1.20104 q 0,0.15666 -0.0104,0.33421 0,0.1671 0.0731,0.2611 0.0523,0.0731 0.15666,0.094 0.10444,0.0104 0.22977,0.0104 h 0.64752 q 0.40731,0 0.79373,0.0104 0.38642,0 0.71018,-0.0418 0.33421,-0.0522 0.5953,-0.17754 0.2611,-0.12533 0.41776,-0.37598 z"
         style="font-style:normal;font-variant:normal;font-weight:normal;font-stretch:normal;font-size:10.2306px;font-family:'Alte Haas Grotesk';-inkscape-font-specification:'Alte Haas Grotesk';fill:#000000;stroke-width:0.270098"
         id="path65" />
      <path
         d="m 114.23555,130.90036 h 3.41513 0.89818 q 0.11488,0 0.22976,0 0.11488,-0.0104 0.18799,0.0418 0.0313,0.0209 0.0522,0.0523 0.0209,0.0313 0.0417,0.0627 0.0209,0.0731 0.0209,0.24021 0,0.15666 -0.0209,0.2402 -0.0417,0.14622 -0.17755,0.16711 -0.13576,0.0104 -0.32375,0.0104 h -1.04438 -1.75458 q -0.16709,0 -0.39686,0 -0.21932,-0.0104 -0.32376,0.0523 -0.10444,0.0627 -0.11488,0.21931 0,0.15666 0,0.32377 v 1.06527 q 0,0.11488 -0.0104,0.27153 0,0.15666 0.0209,0.25066 0.0313,0.12533 0.12531,0.1671 0.0418,0.0209 0.14622,0.0418 h 0.10444 q 0.0418,0.0104 0.0835,0.0104 0.0523,-0.0104 0.10444,-0.0104 h 0.35509 2.047 q 0.094,0 0.20887,0 0.11489,-0.0104 0.22977,0 0.12532,0 0.21932,0.0209 0.10444,0.0104 0.15665,0.0418 0.0313,0.0209 0.0523,0.094 0.0209,0.0731 0.0313,0.15666 0.0104,0.0835 0,0.17755 0,0.0835 -0.0209,0.14621 -0.0209,0.094 -0.094,0.13578 -0.0209,0.0209 -0.0627,0.0313 -0.0313,0 -0.0627,0.0104 h -0.0627 q -0.0523,0.0104 -0.10443,0.0104 -0.0523,-0.0104 -0.10444,-0.0104 h -0.38642 -2.20366 q -0.12533,0 -0.25065,0 -0.11488,-0.0104 -0.21933,0.0104 -0.10443,0.0104 -0.18798,0.0522 -0.0731,0.0418 -0.10444,0.14621 -0.0209,0.0627 -0.0209,0.14622 0.0104,0.0835 0.0104,0.1671 v 0.58485 0.99217 q 0,0.14622 0.0104,0.27154 0.0104,0.11488 0.0835,0.1671 0.0731,0.0523 0.1671,0.0627 0.094,0 0.20887,0 h 0.66841 1.93211 0.59531 q 0.0835,0 0.1671,0 0.0835,-0.0104 0.14622,0.0104 0.12532,0.0418 0.1671,0.11488 0.0209,0.0313 0.0313,0.10444 0.0104,0.0731 0.0104,0.15666 0.0104,0.0731 0,0.15666 -0.0104,0.0731 -0.0209,0.11487 -0.0417,0.0836 -0.094,0.11489 -0.0627,0.0418 -0.1671,0.0418 -0.094,0 -0.18799,0 h -0.73106 -2.77807 -0.73107 q -0.14621,0 -0.25066,-0.0104 -0.10443,-0.0209 -0.15665,-0.10443 -0.0418,-0.0627 -0.0418,-0.15666 0,-0.10445 0,-0.19844 v -0.73107 -2.79896 -2.33941 -0.64753 q 0,-0.094 0,-0.18798 0,-0.094 0.0418,-0.14622 0.0418,-0.0731 0.15665,-0.10443 0.0209,-0.0104 0.0418,0 0.0209,0 0.0417,-0.0104 z"
         style="font-style:normal;font-variant:normal;font-weight:normal;font-stretch:normal;font-size:10.2306px;font-family:'Alte Haas Grotesk';-inkscape-font-specification:'Alte Haas Grotesk';fill:#000000;stroke-width:0.270098"
         id="path67" />
    </g>
  </g>
</svg>
